<?xml version="1.0" encoding="utf-8"?>
<!-- Generator: Adobe Illustrator 26.4.1, SVG Export Plug-In . SVG Version: 6.00 Build 0)  -->
<svg version="1.1" id="Layer_1" xmlns="http://www.w3.org/2000/svg" xmlns:xlink="http://www.w3.org/1999/xlink" x="0px" y="0px"
	 viewBox="0 0 81 28.1" style="enable-background:new 0 0 81 28.1;" xml:space="preserve">
<style type="text/css">
	.st0{clip-path:url(#SVGID_00000064336725463001333380000017584790145208359836_);}
	.st1{clip-path:url(#SVGID_00000183970672528981517800000000743175845253024943_);}
	.st2{fill:#FFFFFF;}
</style>
<g>
	<g>
		<g>
			<g>
				<defs>
					<path id="SVGID_1_" d="M4.6,4.4L4.6,4.4L4.6,4.4z"/>
				</defs>
				<clipPath id="SVGID_00000034090719520856580050000004447407409515767450_">
					<use xlink:href="#SVGID_1_"  style="overflow:visible;"/>
				</clipPath>
			</g>
			<g>
				<defs>
					<path id="SVGID_00000148642386976077175420000016926783680221919138_" d="M4.6,4.4L4.6,4.4L4.6,4.4z"/>
				</defs>
				<defs>
					<path id="SVGID_00000121991365125747733960000017736644940960663999_" d="M4.6,4.4L4.6,4.4L4.6,4.4z"/>
				</defs>
				<clipPath id="SVGID_00000014625290802115876110000018065416636992828561_">
					<use xlink:href="#SVGID_00000148642386976077175420000016926783680221919138_"  style="overflow:visible;"/>
				</clipPath>
				
					<clipPath id="SVGID_00000093875949439033930130000003322297435916597129_" style="clip-path:url(#SVGID_00000014625290802115876110000018065416636992828561_);">
					<use xlink:href="#SVGID_00000121991365125747733960000017736644940960663999_"  style="overflow:visible;"/>
				</clipPath>
				<path style="clip-path:url(#SVGID_00000093875949439033930130000003322297435916597129_);" d="M59,14.2c0-1.7,1.3-2.4,1.4-2.5
					c-0.8-1.1-1.9-1.3-2.4-1.3c-1-0.1-2,0.6-2.5,0.6s-1.3-0.6-2.2-0.6c-1.1,0-2.1,0.6-2.7,1.6c-1.1,2-0.3,4.9,0.8,6.5
					c0.5,0.8,1.2,1.7,2,1.7s1.1-0.5,2.1-0.5s1.3,0.5,2.2,0.5s1.4-0.8,2-1.6c0.6-0.9,0.9-1.8,0.9-1.8C60.7,16.8,59,16.2,59,14.2"/>
			</g>
		</g>
	</g>
	<g>
		<rect x="28.3" y="12.2" class="st2" width="1.9" height="11.6"/>
		<path class="st2" d="M29.3,7.8c-0.3,0-0.6,0.1-0.9,0.4C28.1,8.5,28,8.7,28,9.1s0.1,0.6,0.4,0.9s0.5,0.4,0.9,0.4s0.6-0.1,0.9-0.4
			c0.3-0.3,0.4-0.5,0.4-0.9s-0.1-0.6-0.4-0.9C29.9,7.9,29.6,7.8,29.3,7.8z"/>
		<path class="st2" d="M39.4,7.8h-0.5h-1l-6,16.1H34l1.7-4.6h6.4l1.6,4.6h2.1l-6-16.1C39.9,7.8,39.4,7.8,39.4,7.8z M36.3,17.5
			l2.6-7.3l0,0l2.6,7.3H36.3z"/>
		<path class="st2" d="M52.9,12c-0.9,0-1.6,0.2-2.2,0.5c-0.6,0.4-1,0.8-1.4,1.3l0,0v-1.7h-1.9v11.5h1.9V17c0-0.6,0.1-1.2,0.4-1.7
			c0.3-0.5,0.6-0.9,1-1.1c0.4-0.3,1-0.4,1.6-0.4c0.9,0,1.6,0.3,2,0.8s0.6,1.2,0.6,2.2V24h1.9v-7.5c0-1.3-0.3-2.4-1-3.1
			C55.2,12.4,54.2,12,52.9,12z"/>
		<path class="st2" d="M67,12.7c-0.8-0.5-1.7-0.7-2.8-0.7s-2,0.2-2.8,0.7s-1.4,1.2-1.9,2.1s-0.7,2-0.7,3.2s0.3,2.3,0.7,3.2
			s1.1,1.6,1.9,2.1c0.8,0.5,1.7,0.8,2.8,0.8s2-0.2,2.8-0.7s1.4-1.2,1.9-2.1s0.7-2,0.7-3.2l0,0c0-1.3-0.3-2.3-0.7-3.2
			C68.4,13.9,67.8,13.2,67,12.7z M67.2,20.3c-0.3,0.6-0.7,1.1-1.2,1.5c-0.5,0.3-1.1,0.5-1.8,0.5c-0.7,0-1.3-0.2-1.8-0.5
			c-0.5-0.4-0.9-0.8-1.2-1.5c-0.3-0.6-0.4-1.4-0.4-2.3l0,0c0-0.9,0.1-1.7,0.4-2.3c0.3-0.6,0.7-1.1,1.2-1.5c0.5-0.3,1.1-0.5,1.8-0.5
			c0.7,0,1.3,0.1,1.8,0.5s0.9,0.8,1.2,1.5c0.3,0.6,0.4,1.4,0.4,2.3S67.5,19.7,67.2,20.3z"/>
		<path class="st2" d="M80,13.2c-0.7-0.8-1.7-1.2-3-1.2c-0.9,0-1.6,0.2-2.2,0.5c-0.6,0.4-1,0.8-1.4,1.3l0,0v-1.7h-1.9v11.5h1.9V17
			c0-0.6,0.1-1.2,0.4-1.7s0.6-0.9,1-1.1c0.4-0.3,1-0.4,1.6-0.4c0.9,0,1.6,0.3,2,0.8s0.6,1.2,0.6,2.2V24h2v-7.5
			C81,15,80.7,13.9,80,13.2z"/>
	</g>
	<path class="st2" d="M22.1,9.6C21.9,9.7,19,11.3,19,15c0,4.1,3.7,5.6,3.8,5.6c0,0.1-0.6,2-1.9,4c-1.2,1.7-2.4,3.4-4.3,3.4
		s-2.4-1.1-4.6-1.1S9.1,28,7.4,28s-3-1.6-4.3-3.6C1.3,22.2,0,18.6,0,15.2c0-5.5,3.6-8.3,7-8.3c1.9,0,3.4,1.2,4.6,1.2
		c1.1,0,2.8-1.3,5-1.3C17.3,6.8,20.2,6.9,22.1,9.6L22.1,9.6z M15.5,4.5C16.4,3.4,17,2,17,0.6c0-0.2,0-0.4,0-0.6
		c-1.4,0-3.1,0.9-4.1,2.1C12,3,11.3,4.5,11.3,5.9c0,0.2,0,0.4,0,0.5c0.1,0,0.3,0,0.4,0C13,6.5,14.6,5.6,15.5,4.5L15.5,4.5z"/>
</g>
</svg>
