<?xml version="1.0" encoding="utf-8"?>
<!-- Generator: Adobe Illustrator 26.4.1, SVG Export Plug-In . SVG Version: 6.00 Build 0)  -->
<svg version="1.1" id="Layer_1" xmlns="http://www.w3.org/2000/svg" xmlns:xlink="http://www.w3.org/1999/xlink" x="0px" y="0px"
	 viewBox="0 0 126.1 15.6" style="enable-background:new 0 0 126.1 15.6;" xml:space="preserve">
<style type="text/css">
	.st0{fill:#C1C1C1;}
</style>
<g>
	<path class="st0" d="M9.8,0c2.8,0,5.6,0,8.4,0c0.8,0,1.4,0.6,1.4,1.3S19,2.5,18.4,2.6h-0.1c-5.6,0-11.2,0-16.8,0
		c-0.7,0-1.2-0.4-1.3-1C-0.1,0.8,0.4,0,1.3,0c0.5,0,0.9,0,1.4,0C5,0,7.4,0,9.8,0z"/>
	<path class="st0" d="M9.8,6.5c2.8,0,5.6,0,8.4,0c0.8,0,1.4,0.6,1.4,1.3S19,9,18.4,9.1c-0.1,0-0.1,0-0.2,0c-5.6,0-11.1,0-16.7,0
		c-0.7,0-1.2-0.4-1.4-1c-0.2-0.8,0.4-1.6,1.2-1.6c0.5,0,1,0,1.4,0C5.1,6.5,7.4,6.5,9.8,6.5z"/>
	<path class="st0" d="M9.8,13c2.8,0,5.6,0,8.4,0c0.8,0,1.4,0.6,1.4,1.3s-0.6,1.2-1.2,1.3c-0.1,0-0.1,0-0.2,0c-5.6,0-11.1,0-16.7,0
		c-0.7,0-1.2-0.4-1.4-1C-0.1,13.8,0.4,13,1.3,13c0.5,0,1,0,1.5,0C5.1,13,7.4,13,9.8,13z"/>
</g>
<g>
	<path class="st0" d="M42.1,12.7V4.3l-3.5,8.4h-0.8l-3.4-8.4v8.4h-2V1.4h2.8l3.1,7.4l3.1-7.4H44v11.3H42.1z"/>
	<path class="st0" d="M45.9,8.6c0-2.4,1.7-4.3,4.1-4.3c2.4,0,4,1.9,4,4.4v0.4h-6.3c0.1,1.2,1.1,2.2,2.6,2.2c0.8,0,1.7-0.3,2.3-0.9
		l0.8,1.2c-0.8,0.8-2,1.2-3.3,1.2C47.7,12.9,45.9,11.2,45.9,8.6z M50,5.8c-1.5,0-2.2,1.2-2.3,2.2h4.6C52.3,7,51.6,5.8,50,5.8z"/>
	<path class="st0" d="M61.3,12.7V7.6c0-1.3-0.6-1.7-1.6-1.7c-0.9,0-1.7,0.5-2.1,1.1v5.7h-1.8V4.5h1.8v1.1c0.5-0.6,1.6-1.3,2.9-1.3
		c1.8,0,2.6,0.9,2.6,2.6v5.7H61.3z"/>
	<path class="st0" d="M70.9,12.7v-1.1c-0.6,0.7-1.6,1.3-2.9,1.3c-1.8,0-2.6-0.9-2.6-2.6V4.5h1.8v5.1c0,1.3,0.6,1.7,1.6,1.7
		c0.9,0,1.7-0.5,2.1-1.1V4.5h1.8v8.2H70.9z"/>
</g>
</svg>
