<?xml version="1.0" encoding="utf-8"?>
<!-- Generator: Adobe Illustrator 26.4.1, SVG Export Plug-In . SVG Version: 6.00 Build 0)  -->
<svg version="1.1" id="Layer_1" xmlns="http://www.w3.org/2000/svg" xmlns:xlink="http://www.w3.org/1999/xlink" x="0px" y="0px"
	 viewBox="0 0 32 32" style="enable-background:new 0 0 32 32;" xml:space="preserve">
<style type="text/css">
	.st0{fill:#7F7F7F;}
</style>
<path class="st0" d="M9.7,6.6c-1.1-2.4-0.8-4.3,0.9-5.5c1.3-1,3.7-1.2,5.4,0.8c0.8-1,1.8-1.5,3.1-1.5c0.9,0,1.7,0.3,2.4,0.8
	c1.6,1.3,1.8,3,0.8,5.4c0.1,0,0.3,0,0.4,0c2.3,0,4.5,0,6.8,0c1.6,0,2.5,1,2.5,2.5c0,0.9,0,1.9,0,2.8c0,1-0.4,1.8-1.4,2.3
	c-0.2,0.1-0.2,0.3-0.2,0.4c0,2.8,0,5.6,0,8.3c0,2,0,4,0,6.1c0,1.6-1,2.5-2.5,2.5c-7.9,0-15.9,0-23.8,0c-1.6,0-2.5-1-2.5-2.5
	c0-4.8,0-9.6,0-14.4c0-0.3-0.1-0.4-0.3-0.5C0.5,13.7,0,13,0,12.1c0-1,0-2,0-3.1c0-1.4,1-2.4,2.4-2.4c2.3,0,4.6,0,6.8,0
	C9.4,6.6,9.5,6.6,9.7,6.6z M3.1,14.5c0,0.2,0,0.3,0,0.4c0,4.7,0,9.5,0,14.2c0,0.7,0.3,1,1,1c2.5,0,5,0,7.6,0c0.1,0,0.3,0,0.4,0
	c0-5.2,0-10.4,0-15.6C9.1,14.5,6.1,14.5,3.1,14.5z M19.9,14.5c0,5.2,0,10.4,0,15.6c0.1,0,0.2,0,0.4,0c2.5,0,5.1,0,7.6,0
	c0.7,0,1-0.3,1-1c0-4.7,0-9.5,0-14.2c0-0.1,0-0.3,0-0.4C25.9,14.5,22.9,14.5,19.9,14.5z M18.3,30c0-5.2,0-10.4,0-15.6
	c-1.6,0-3.1,0-4.6,0c0,5.2,0,10.4,0,15.6C15.2,30,16.8,30,18.3,30z M12.1,12.9c0-1.6,0-3.1,0-4.7c-0.1,0-0.2,0-0.2,0
	c-3.1,0-6.3,0-9.4,0c-0.6,0-0.9,0.3-0.9,0.9c0,0.9,0,1.9,0,2.8c0,0.7,0.2,1,1,1c2.9,0,5.8,0,8.7,0C11.5,12.9,11.8,12.9,12.1,12.9z
	 M19.9,12.8c0.1,0,0.2,0,0.2,0c3.1,0,6.3,0,9.4,0c0.6,0,0.8-0.3,0.9-0.9c0-0.9,0-1.9,0-2.8c0-0.8-0.2-1-1.1-1c-3,0-6,0-9.1,0
	c-0.1,0-0.3,0-0.4,0C19.9,9.8,19.9,11.3,19.9,12.8z M13.7,8.2c0,1.6,0,3.1,0,4.6c1.6,0,3.1,0,4.6,0c0-1.6,0-3.1,0-4.6
	C16.8,8.2,15.2,8.2,13.7,8.2z M15.2,6.6c0-0.8,0-1.6,0-2.4C15.2,3,14.2,2,13,2c-1.2-0.1-2.3,0.8-2.5,2.1c-0.2,1.2,0.6,2.4,1.8,2.5
	C13.3,6.7,14.2,6.6,15.2,6.6z M16.8,6.6c0.3,0,0.6,0,0.9,0c0.6,0,1.3,0,1.9-0.1c1.2-0.2,1.9-1.4,1.8-2.5C21.3,2.8,20.3,1.9,19,2
	c-1.2,0-2.2,1-2.2,2.2C16.8,5,16.8,5.8,16.8,6.6z"/>
</svg>
