<?xml version="1.0" encoding="utf-8"?>
<!-- Generator: Adobe Illustrator 26.4.1, SVG Export Plug-In . SVG Version: 6.00 Build 0)  -->
<svg version="1.1" id="Layer_1" xmlns="http://www.w3.org/2000/svg" xmlns:xlink="http://www.w3.org/1999/xlink" x="0px" y="0px"
	 viewBox="0 0 210 37" style="enable-background:new 0 0 210 37;" xml:space="preserve">
<style type="text/css">
	.st0{fill:#C1C1C1;}
</style>
<g>
	<g>
		<path class="st0" d="M13,26V13.4L7.8,26H7.1L1.9,13.4V26H0V10.7h2.7l4.7,11.5l4.8-11.5h2.7V26H13z"/>
		<path class="st0" d="M25.4,26v-1.3c-0.9,1-2.2,1.5-3.7,1.5c-1.9,0-3.9-1.3-3.9-3.7c0-2.5,2-3.6,3.9-3.6c1.5,0,2.8,0.5,3.7,1.5v-2
			c0-1.5-1.2-2.3-2.8-2.3c-1.3,0-2.4,0.5-3.4,1.5l-0.8-1.2c1.2-1.2,2.6-1.8,4.4-1.8c2.3,0,4.3,1.1,4.3,3.7V26H25.4z M25.4,23.6v-2.1
			c-0.7-0.9-1.8-1.4-3-1.4c-1.6,0-2.7,1-2.7,2.4c0,1.4,1.1,2.4,2.7,2.4C23.5,25,24.7,24.5,25.4,23.6z"/>
		<path class="st0" d="M30.2,12.2c0-0.6,0.5-1.2,1.1-1.2c0.6,0,1.2,0.5,1.2,1.2c0,0.6-0.5,1.1-1.2,1.1
			C30.8,13.3,30.2,12.8,30.2,12.2z M30.5,26V14.9h1.7V26H30.5z"/>
		<path class="st0" d="M43.1,26v-7.2c0-1.9-1-2.6-2.5-2.6c-1.4,0-2.6,0.8-3.3,1.7V26h-1.7V14.9h1.7v1.6c0.8-0.9,2.3-1.9,3.9-1.9
			c2.3,0,3.5,1.2,3.5,3.6V26H43.1z"/>
		<path class="st0" d="M67.3,26V13.4L62.1,26h-0.8l-5.2-12.6V26h-1.9V10.7H57l4.7,11.5l4.8-11.5h2.7V26H67.3z"/>
		<path class="st0" d="M72.1,20.4c0-3.2,2.3-5.8,5.4-5.8c3.3,0,5.3,2.6,5.3,5.9V21h-8.9c0.1,2.1,1.6,3.8,4,3.8
			c1.3,0,2.5-0.5,3.4-1.4l0.8,1.1c-1.1,1.1-2.6,1.7-4.4,1.7C74.4,26.2,72.1,23.9,72.1,20.4z M77.5,16.1c-2.4,0-3.5,2-3.6,3.7h7.3
			C81.1,18.1,80,16.1,77.5,16.1z"/>
		<path class="st0" d="M93.1,26v-7.2c0-1.9-1-2.6-2.5-2.6c-1.4,0-2.6,0.8-3.3,1.7V26h-1.7V14.9h1.7v1.6c0.8-0.9,2.3-1.9,3.9-1.9
			c2.3,0,3.5,1.2,3.5,3.6V26H93.1z"/>
		<path class="st0" d="M105.7,26v-1.6c-0.8,1-2.3,1.8-3.9,1.8c-2.3,0-3.5-1.1-3.5-3.5v-7.8h1.7v7.3c0,1.9,1,2.5,2.5,2.5
			c1.4,0,2.6-0.8,3.3-1.7v-8.1h1.7V26H105.7z"/>
	</g>
	<g>
		<g>
			<path class="st0" d="M120.1,26.3c-0.3,0-0.5-0.1-0.7-0.3l-5-5c-0.4-0.4-0.4-1,0-1.4s1-0.4,1.4,0l4.3,4.3l4.3-4.3
				c0.4-0.4,1-0.4,1.4,0s0.4,1,0,1.4l-5,5C120.6,26.2,120.4,26.3,120.1,26.3z M120.1,21.3c-0.3,0-0.5-0.1-0.7-0.3l-5-5
				c-0.4-0.4-0.4-1,0-1.4s1-0.4,1.4,0l4.3,4.3l4.3-4.3c0.4-0.4,1-0.4,1.4,0s0.4,1,0,1.4l-5,5C120.6,21.2,120.4,21.3,120.1,21.3z"/>
		</g>
	</g>
</g>
</svg>
