<?xml version="1.0" encoding="utf-8"?>
<!-- Generator: Adobe Illustrator 26.4.1, SVG Export Plug-In . SVG Version: 6.00 Build 0)  -->
<svg version="1.1" id="Layer_1" xmlns="http://www.w3.org/2000/svg" xmlns:xlink="http://www.w3.org/1999/xlink" x="0px" y="0px"
	 viewBox="0 0 32 32" style="enable-background:new 0 0 32 32;" xml:space="preserve">
<style type="text/css">
	.st0{fill:#E6E6E6;}
</style>
<g>
	<path class="st0" d="M15.4,6.5c0.4,0,0.7,0,1.1,0c0.1,0,0.1,0,0.1,0c0.5,0.1,1.1,0.1,1.5,0.3c4.9,1.1,8,6.1,7.1,11
		c-0.4,2.1-1.3,3.8-2.9,5.2c-2.2,2-4.8,2.8-7.7,2.4c-1.9-0.3-3.5-1-4.9-2.3c-1.7-1.5-2.7-3.3-3.1-5.5c-0.1-0.3-0.1-0.7-0.1-1.1
		c0-0.4,0-0.7,0-1.1c0-0.1,0-0.1,0.1-0.2c0.1-0.3,0.1-0.7,0.1-1c0.3-1.9,1.1-3.5,2.5-4.9c1.4-1.4,3.1-2.3,5.1-2.7
		C14.7,6.6,15,6.6,15.4,6.5z M16,24.4c4.6,0,8.4-3.7,8.4-8.4c0-4.6-3.7-8.3-8.3-8.4c-4.7,0-8.5,3.8-8.5,8.4S11.4,24.4,16,24.4z"/>
	<path class="st0" d="M19.9,21.6c-0.1-0.1-0.1-0.1-0.2-0.1c-1.2-0.6-2.4-1.3-3.6-1.9c-0.1-0.1-0.3-0.1-0.4,0
		c-1.2,0.7-2.4,1.3-3.6,1.9c-0.1,0-0.1,0.1-0.2,0.1c0-0.1,0-0.1,0-0.1c0.3-1.4,0.5-2.7,0.7-4.1c0-0.1,0-0.2-0.1-0.3
		c-1-0.9-2-1.9-2.9-2.9C9.6,14,9.6,14,9.5,13.9c0.5-0.1,0.9-0.1,1.3-0.2c1-0.1,2-0.3,3.1-0.5c0.1,0,0.1-0.1,0.2-0.1
		c0.5-1.3,1.1-2.5,1.7-3.7c0-0.1,0.1-0.1,0.1-0.2C16,9.3,16,9.4,16.1,9.5c0.6,1.2,1.2,2.5,1.8,3.7c0.1,0.1,0.1,0.1,0.2,0.2
		c1.4,0.2,2.8,0.4,4.2,0.6h0.1c-0.1,0.1-0.1,0.1-0.1,0.1c-1,0.9-1.9,1.9-2.9,2.9c-0.1,0.1-0.1,0.2-0.1,0.3c0.3,1.3,0.5,2.7,0.7,4.1
		C19.9,21.4,19.9,21.5,19.9,21.6z M13.4,19.5c0.1-0.1,0.1-0.1,0.2-0.1c0.7-0.4,1.5-0.7,2.1-1.1c0.1-0.1,0.2-0.1,0.3,0
		c0.7,0.4,1.5,0.7,2.1,1.1c0.1,0,0.1,0.1,0.2,0.1c0-0.1,0-0.1,0-0.2c-0.1-0.8-0.3-1.6-0.4-2.5c0-0.1,0-0.3,0.1-0.3
		c0.6-0.6,1.2-1.1,1.7-1.7c0.1-0.1,0.1-0.1,0.1-0.1c-0.1,0-0.1,0-0.1,0c-0.9-0.1-1.7-0.3-2.5-0.3c-0.1,0-0.3-0.1-0.3-0.2
		c-0.3-0.7-0.7-1.5-1.1-2.2c0-0.1-0.1-0.1-0.1-0.2c-0.1,0.1-0.1,0.1-0.1,0.2c-0.3,0.7-0.7,1.5-1.1,2.2c-0.1,0.1-0.1,0.1-0.2,0.1
		c-0.5,0.1-0.9,0.1-1.4,0.2c-0.4,0.1-0.9,0.1-1.3,0.2c0.1,0.1,0.1,0.1,0.2,0.1c0.6,0.6,1.2,1.1,1.8,1.7c0.1,0.1,0.1,0.2,0.1,0.3
		c-0.1,0.6-0.2,1.2-0.3,1.8C13.5,18.9,13.5,19.2,13.4,19.5z"/>
</g>
</svg>
