<?xml version="1.0" encoding="utf-8"?>
<!-- Generator: Adobe Illustrator 26.4.1, SVG Export Plug-In . SVG Version: 6.00 Build 0)  -->
<svg version="1.1" id="Livello_1" xmlns="http://www.w3.org/2000/svg" xmlns:xlink="http://www.w3.org/1999/xlink" x="0px" y="0px"
	 viewBox="0 0 32 32" style="enable-background:new 0 0 32 32;" xml:space="preserve">
<style type="text/css">
	.st0{fill:#E6E6E6;}
</style>
<g>
	<path class="st0" d="M16,5.3C10.1,5.3,5.3,10.1,5.3,16c0,5.9,4.8,10.7,10.7,10.7c5.9,0,10.7-4.8,10.7-10.7
		C26.7,10.1,21.9,5.3,16,5.3z M16,24.9c-4.9,0-8.9-4-8.9-8.9c0-4.9,4-8.9,8.9-8.9c4.9,0,8.9,4,8.9,8.9C24.9,20.9,20.9,24.9,16,24.9z
		"/>
	<path class="st0" d="M22.8,14.1c-0.7-0.5-4.6-0.7-4.6-0.7s-0.9-2.2-1.4-3.3c-0.5-1-0.7-0.9-0.7-0.9v0c0,0-0.2-0.1-0.7,0.9
		c-0.5,1-1.4,3.3-1.4,3.3s-3.8,0.2-4.6,0.7c-0.1,0.1,0.5,0.8,0.5,0.8l2.7,2.7c0,0-0.9,3.3-0.9,3.9c0,0.6,0.3,0.5,0.3,0.5l4-2v0l4,2
		c0,0,0.3,0.1,0.3-0.5c0-0.6-0.9-3.9-0.9-3.9l2.7-2.7C22.3,14.9,22.9,14.2,22.8,14.1z"/>
</g>
</svg>
