<?xml version="1.0" encoding="utf-8"?>
<!-- Generator: Adobe Illustrator 26.4.1, SVG Export Plug-In . SVG Version: 6.00 Build 0)  -->
<svg version="1.1" id="Layer_1" xmlns="http://www.w3.org/2000/svg" xmlns:xlink="http://www.w3.org/1999/xlink" x="0px" y="0px"
	 viewBox="0 0 608 608" style="enable-background:new 0 0 608 608;" xml:space="preserve">
<path d="M499.4,222.9c-3.3,2-55.8,31.5-55.8,97.9c0,75.5,67,102.5,69,103.1c0,1.3-10.5,36.8-35.5,72.9
	c-21.7,31.5-44.7,63.1-79.5,63.1s-44-20.4-84.1-20.4c-39.4,0-53.2,21-84.7,21s-54.5-28.9-79.5-65c-30.2-42-53.9-107.7-53.9-169.5
	c0-99.8,65-152.4,128.7-152.4c34.2,0,62.4,22.3,83.4,22.3c20.4,0,51.9-23.6,90.6-23.6C412.1,172.3,464.6,173.6,499.4,222.9
	L499.4,222.9z M379.2,129.6c15.8-19,26.9-45.3,26.9-71.6c0-3.9,0-7.2-0.7-10.5c-25.6,0.7-56.5,17.1-75.5,38.8
	c-14.5,16.4-28.2,42.7-28.2,69.6c0,3.9,0.7,7.9,0.7,9.2c1.3,0,4.6,0.7,7.2,0.7C333.2,166.4,362.1,150.6,379.2,129.6L379.2,129.6z"/>
</svg>
