<?xml version="1.0" encoding="utf-8"?>
<!-- Generator: Adobe Illustrator 26.4.1, SVG Export Plug-In . SVG Version: 6.00 Build 0)  -->
<svg version="1.1" id="Layer_1" xmlns="http://www.w3.org/2000/svg" xmlns:xlink="http://www.w3.org/1999/xlink" x="0px" y="0px"
	 viewBox="0 0 22 22" style="enable-background:new 0 0 22 22;" xml:space="preserve">
<style type="text/css">
	.st0{fill:#188E70;}
	.st1{fill:#A9A9A9;}
</style>
<g>
	<path class="st0" d="M11,22C4.9,22,0,17.1,0,11S4.9,0,11,0s11,4.9,11,11S17.1,22,11,22z M11,1C5.5,1,1,5.5,1,11c0,5.5,4.5,10,10,10
		c5.5,0,10-4.5,10-10C21,5.5,16.5,1,11,1z"/>
</g>
<path class="st0" d="M14.5,3h-7C6.7,3,6,3.7,6,4.5S6.7,6,7.5,6H8v5l-2,2h10l-2-2V6h0.5C15.3,6,16,5.3,16,4.5S15.3,3,14.5,3z"/>
<path class="st1" d="M10.5,17l0.5,3l0.5-3v-4h-1V17z"/>
</svg>
