<?xml version="1.0" encoding="utf-8"?>
<!-- Generator: Adobe Illustrator 26.4.1, SVG Export Plug-In . SVG Version: 6.00 Build 0)  -->
<svg version="1.1" id="Layer_1" xmlns="http://www.w3.org/2000/svg" xmlns:xlink="http://www.w3.org/1999/xlink" x="0px" y="0px"
	 viewBox="0 0 22 22" style="enable-background:new 0 0 22 22;" xml:space="preserve">
<style type="text/css">
	.st0{fill:#188E70;}
	.st1{fill:none;stroke:#A9A9A9;stroke-linecap:round;stroke-linejoin:round;}
	.st2{fill:none;stroke:#DB9856;stroke-linecap:round;stroke-linejoin:round;}
	.st3{fill:#DB9856;}
</style>
<g>
	<path class="st0" d="M11,22c-4.9,0-9.4-3.4-10.7-8.4C-1.1,7.8,2.5,1.8,8.4,0.3c5.9-1.5,11.8,2.2,13.3,8.1c0.3,1.5,0.4,2.9,0.2,4.2
		c0,0.3-0.3,0.5-0.6,0.4c-0.3,0-0.5-0.3-0.4-0.6c0.2-1.2,0.1-2.5-0.2-3.8C19.4,3.2,13.9,0,8.6,1.3C3.2,2.6,0,8.1,1.3,13.4
		c1.3,5.4,6.8,8.7,12.1,7.3c0.3-0.1,0.5,0.1,0.6,0.4c0.1,0.3-0.1,0.5-0.4,0.6C12.7,21.9,11.9,22,11,22z"/>
</g>
<path class="st1" d="M5,9.5h12 M5,6.5h10 M5,12.5h12 M5,15.5h8"/>
<path class="st2" d="M20.5,15.5c0-1.1-0.9-2-2-2s-2,0.9-2,2"/>
<path class="st3" d="M21.5,16h-6c-0.3,0-0.5,0.2-0.5,0.5v5c0,0.3,0.2,0.5,0.5,0.5h6c0.3,0,0.5-0.2,0.5-0.5v-5
	C22,16.2,21.8,16,21.5,16z M18.5,20c-0.6,0-1-0.4-1-1s0.4-1,1-1s1,0.4,1,1S19.1,20,18.5,20z"/>
</svg>
