<?xml version="1.0" encoding="utf-8"?>
<!-- Generator: Adobe Illustrator 26.4.1, SVG Export Plug-In . SVG Version: 6.00 Build 0)  -->
<svg version="1.1" id="Layer_1" xmlns="http://www.w3.org/2000/svg" xmlns:xlink="http://www.w3.org/1999/xlink" x="0px" y="0px"
	 viewBox="0 0 126.1 15.6" style="enable-background:new 0 0 126.1 15.6;" xml:space="preserve">
<style type="text/css">
	.st0{fill:#C1C1C1;}
</style>
<g>
	<path class="st0" d="M104.1,13.4c-0.2,0-0.5-0.1-0.7-0.3l-4.7-4.7c-0.4-0.4-0.4-1,0-1.3c0.4-0.4,1-0.4,1.3,0l4,4l4-4
		c0.4-0.4,1-0.4,1.3,0c0.4,0.4,0.4,1,0,1.3l-4.7,4.7C104.6,13.3,104.4,13.4,104.1,13.4z M104.1,8.7c-0.2,0-0.5-0.1-0.7-0.3l-4.7-4.7
		c-0.4-0.4-0.4-1,0-1.3c0.4-0.4,1-0.4,1.3,0l4,4l4-4c0.4-0.4,1-0.4,1.3,0c0.4,0.4,0.4,1,0,1.3l-4.7,4.7
		C104.6,8.6,104.4,8.7,104.1,8.7z"/>
</g>
<g>
	<path class="st0" d="M9.8,13.4V5l-3.5,8.4H5.5L2,5v8.4H0V2.1h2.8l3.1,7.4L9,2.1h2.8v11.3H9.8z"/>
	<path class="st0" d="M19.1,13.4v-0.9c-0.6,0.7-1.6,1.1-2.6,1.1c-1.3,0-2.8-0.9-2.8-2.7c0-1.9,1.5-2.7,2.8-2.7c1.1,0,2,0.4,2.6,1.1
		V8.1c0-0.9-0.8-1.5-1.9-1.5c-0.9,0-1.7,0.3-2.4,1L14,6.3C15,5.4,16.2,5,17.5,5c1.8,0,3.4,0.8,3.4,3v5.4H19.1z M19.1,11.5v-1.2
		c-0.4-0.6-1.2-0.8-1.9-0.8c-1,0-1.7,0.6-1.7,1.5c0,0.9,0.7,1.5,1.7,1.5C17.9,12.4,18.7,12.1,19.1,11.5z"/>
	<path class="st0" d="M23,3.1C23,2.5,23.5,2,24.1,2c0.6,0,1.1,0.5,1.1,1.1c0,0.6-0.5,1.1-1.1,1.1C23.5,4.2,23,3.7,23,3.1z
		 M23.2,13.4V5.2H25v8.2H23.2z"/>
	<path class="st0" d="M32.8,13.4V8.3c0-1.3-0.6-1.7-1.6-1.7c-0.9,0-1.7,0.5-2.1,1.1v5.7h-1.8V5.2H29v1.1C29.6,5.7,30.6,5,31.9,5
		c1.8,0,2.6,0.9,2.6,2.6v5.8H32.8z"/>
	<path class="st0" d="M51,13.4V5l-3.5,8.4h-0.8L43.2,5v8.4h-2V2.1h2.8l3.1,7.4l3.1-7.4H53v11.3H51z"/>
	<path class="st0" d="M54.8,9.3C54.8,6.9,56.6,5,59,5c2.5,0,4,1.9,4,4.5v0.4h-6.3c0.1,1.2,1.1,2.3,2.6,2.3c0.8,0,1.7-0.3,2.3-0.9
		l0.8,1.2c-0.8,0.8-2,1.2-3.3,1.2C56.7,13.6,54.8,11.9,54.8,9.3z M59,6.5c-1.5,0-2.2,1.2-2.3,2.2h4.6C61.3,7.7,60.6,6.5,59,6.5z"/>
	<path class="st0" d="M70.3,13.4V8.3c0-1.3-0.6-1.7-1.6-1.7c-0.9,0-1.7,0.5-2.1,1.1v5.7h-1.8V5.2h1.8v1.1C67.1,5.7,68.2,5,69.4,5
		c1.8,0,2.6,0.9,2.6,2.6v5.8H70.3z"/>
	<path class="st0" d="M79.9,13.4v-1.1c-0.6,0.7-1.6,1.3-2.9,1.3c-1.8,0-2.6-0.9-2.6-2.6V5.2h1.8v5.1c0,1.3,0.6,1.7,1.6,1.7
		c0.9,0,1.7-0.5,2.1-1.1V5.2h1.8v8.2H79.9z"/>
</g>
</svg>
