<?xml version="1.0" encoding="utf-8"?>
<!-- Generator: Adobe Illustrator 26.4.1, SVG Export Plug-In . SVG Version: 6.00 Build 0)  -->
<svg version="1.1" id="Layer_1" xmlns="http://www.w3.org/2000/svg" xmlns:xlink="http://www.w3.org/1999/xlink" x="0px" y="0px"
	 viewBox="0 0 20 20" style="enable-background:new 0 0 20 20;" xml:space="preserve">
<style type="text/css">
	.st0{fill:none;stroke:#C1C1C1;stroke-linecap:round;stroke-linejoin:round;}
</style>
<path class="st0" d="M4.8,12.5H3.5c-1.6,0-3,1.3-3,3c0,0,0,0,0,0v4h17v-4c0-1.6-1.3-3-3-3c0,0,0,0,0,0h-1.3"/>
<path class="st0" d="M4.8,12.5c-0.2-0.5-0.3-1-0.3-1.5V7c0-2.5,2-4.5,4.5-4.5s4.5,2,4.5,4.5v4c0,2.5-2,4.5-4.5,4.5
	C7.1,15.5,5.4,14.3,4.8,12.5z"/>
<circle class="st0" cx="16.5" cy="3.5" r="2"/>
<path class="st0" d="M16.5,5.5v2"/>
</svg>
