<?xml version="1.0" encoding="utf-8"?>
<!-- Generator: Adobe Illustrator 26.4.1, SVG Export Plug-In . SVG Version: 6.00 Build 0)  -->
<svg version="1.1" id="Layer_1" xmlns="http://www.w3.org/2000/svg" xmlns:xlink="http://www.w3.org/1999/xlink" x="0px" y="0px"
	 viewBox="0 0 32 32" style="enable-background:new 0 0 32 32;" xml:space="preserve">
<style type="text/css">
	.st0{fill:#C1C1C1;}
</style>
<path class="st0" d="M16,29.9c-0.3,0-0.5-0.1-0.7-0.3L2.5,16.9c-3.3-3.3-3.3-8.8,0-12.1c0,0,0,0,0,0l0.2-0.2c3.3-3.3,8.8-3.3,12.1,0
	c0,0,0,0,0,0L16,5.8l1.2-1.2c3.3-3.3,8.8-3.3,12.1,0c0,0,0,0,0,0l0.2,0.2c3.3,3.3,3.3,8.8,0,12.1c0,0,0,0,0,0L16.7,29.6
	C16.5,29.8,16.3,29.9,16,29.9z M8.8,4.1C7,4.1,5.3,4.8,4.1,6L3.9,6.2c-2.6,2.6-2.6,6.7,0,9.3L16,27.5l12.1-12.1
	c2.6-2.6,2.6-6.7,0-9.3L27.9,6c-2.6-2.6-6.7-2.6-9.3,0l-1.9,1.9c-0.4,0.4-1,0.4-1.4,0c0,0,0,0,0,0L13.4,6C12.2,4.8,10.5,4.1,8.8,4.1
	z"/>
<path class="st0" d="M26,14.3c-0.6,0-1-0.4-1-1c0-0.3,0.1-0.5,0.3-0.7c0.5-0.5,0.7-1.1,0.7-1.8c0-0.7-0.3-1.3-0.8-1.8l-0.2-0.2
	c-0.5-0.5-1.1-0.8-1.8-0.8c-0.6,0-1-0.4-1-1s0.4-1,1-1c1.2,0,2.4,0.5,3.2,1.3l0.2,0.2c1.8,1.8,1.8,4.7,0,6.4c0,0,0,0,0,0
	C26.5,14.2,26.2,14.3,26,14.3z"/>
</svg>
