<?xml version="1.0" encoding="utf-8"?>
<!-- Generator: Adobe Illustrator 26.4.1, SVG Export Plug-In . SVG Version: 6.00 Build 0)  -->
<svg version="1.1" id="Layer_1" xmlns="http://www.w3.org/2000/svg" xmlns:xlink="http://www.w3.org/1999/xlink" x="0px" y="0px"
	 viewBox="0 0 32 32" style="enable-background:new 0 0 32 32;" xml:space="preserve">
<style type="text/css">
	.st0{fill:#C1C1C1;}
</style>
<g>
	<path class="st0" d="M15.2,1.8c0.6,0,1.1,0,1.7,0c0.1,0,0.2,0,0.2,0c0.8,0.1,1.6,0.2,2.3,0.4c7.3,1.7,12,9.1,10.6,16.5
		c-0.6,3.1-2,5.7-4.3,7.8c-3.3,3-7.2,4.2-11.6,3.6c-2.8-0.4-5.3-1.5-7.4-3.4c-2.5-2.2-4.1-5-4.6-8.2C2,18,2,17.4,1.9,16.9
		c0-0.6,0-1.1,0-1.7c0-0.1,0-0.2,0.1-0.3c0.1-0.5,0.1-1,0.2-1.5C2.6,10.5,3.9,8.1,5.9,6c2.1-2.1,4.7-3.5,7.7-4
		C14.1,1.9,14.6,1.9,15.2,1.8z M16,28.6c6.9,0,12.6-5.6,12.6-12.6c0-6.9-5.6-12.5-12.5-12.6C9.1,3.4,3.4,9.1,3.4,16
		S9.1,28.6,16,28.6z"/>
	<path class="st0" d="M22,24.4c-0.1-0.1-0.2-0.1-0.3-0.2c-1.8-0.9-3.6-1.9-5.4-2.8c-0.2-0.1-0.4-0.1-0.6,0c-1.8,1-3.6,1.9-5.4,2.8
		c-0.1,0-0.2,0.1-0.3,0.1c0-0.1,0-0.2,0-0.2c0.4-2.1,0.7-4.1,1.1-6.2c0-0.2,0-0.3-0.2-0.5c-1.5-1.4-3-2.9-4.4-4.3
		C6.4,13,6.4,13,6.3,12.9c0.7-0.1,1.3-0.2,2-0.3c1.5-0.2,3-0.4,4.6-0.7c0.1,0,0.2-0.1,0.3-0.2C14,9.8,14.9,8,15.8,6.2
		c0-0.1,0.1-0.2,0.2-0.3c0.1,0.1,0.1,0.2,0.2,0.3c0.9,1.8,1.8,3.7,2.7,5.5c0.1,0.2,0.2,0.2,0.3,0.3c2.1,0.3,4.2,0.6,6.3,0.9h0.1
		c-0.1,0.1-0.2,0.2-0.2,0.2c-1.5,1.4-2.9,2.9-4.4,4.3c-0.2,0.1-0.2,0.3-0.2,0.5c0.4,2,0.7,4.1,1.1,6.2C22,24.2,22,24.3,22,24.4z
		 M12.2,21.3c0.1-0.1,0.2-0.1,0.3-0.2c1.1-0.6,2.2-1.1,3.2-1.7c0.2-0.1,0.3-0.1,0.5,0c1.1,0.6,2.2,1.1,3.2,1.7
		c0.1,0,0.2,0.1,0.3,0.1c0-0.1,0-0.2,0-0.3c-0.2-1.2-0.4-2.4-0.6-3.7c0-0.2,0-0.4,0.2-0.5c0.9-0.9,1.8-1.7,2.6-2.6
		C22,14,22,14,22.1,13.9c-0.1,0-0.1,0-0.1,0c-1.3-0.2-2.5-0.4-3.8-0.5c-0.2,0-0.4-0.1-0.5-0.3c-0.5-1.1-1.1-2.2-1.6-3.3
		c0-0.1-0.1-0.2-0.2-0.3c-0.1,0.1-0.1,0.2-0.2,0.3c-0.5,1.1-1.1,2.2-1.6,3.3c-0.1,0.2-0.2,0.2-0.3,0.2c-0.7,0.1-1.4,0.2-2.1,0.3
		c-0.6,0.1-1.3,0.2-2,0.3c0.1,0.1,0.2,0.2,0.3,0.2c0.9,0.9,1.8,1.7,2.7,2.6c0.1,0.1,0.1,0.3,0.1,0.4c-0.1,0.9-0.3,1.8-0.5,2.7
		C12.3,20.4,12.3,20.8,12.2,21.3z"/>
</g>
</svg>
