<?xml version="1.0" encoding="utf-8"?>
<!-- Generator: Adobe Illustrator 26.4.1, SVG Export Plug-In . SVG Version: 6.00 Build 0)  -->
<svg version="1.1" id="Layer_1" xmlns="http://www.w3.org/2000/svg" xmlns:xlink="http://www.w3.org/1999/xlink" x="0px" y="0px"
	 viewBox="0 0 32 32" style="enable-background:new 0 0 32 32;" xml:space="preserve">
<style type="text/css">
	.st0{fill:#C1C1C1;}
</style>
<path class="st0" d="M21.5,22.8c-0.3,0-0.5-0.1-0.7-0.3L16,17.8l-4.7,4.7c-0.4,0.4-1,0.4-1.4,0c0,0,0,0,0,0c-0.4-0.4-0.4-1,0-1.4
	l5.4-5.4c0.4-0.4,1-0.4,1.4,0c0,0,0,0,0,0l5.5,5.4c0.4,0.4,0.4,1,0,1.4C22,22.7,21.7,22.8,21.5,22.8z"/>
<path class="st0" d="M16,30.3c-0.6,0-1-0.4-1-1v-12c0-0.6,0.4-1,1-1c0.6,0,1,0.4,1,1v12C17,29.9,16.6,30.3,16,30.3z M23,13.9
	c-0.6,0-1-0.4-1-1c0-2.1-1.7-3.9-3.9-3.9c-0.6,0-1-0.4-1-1s0.4-1,1-1c3.2,0,5.9,2.6,5.9,5.9C24,13.4,23.6,13.9,23,13.9z"/>
<path class="st0" d="M25.1,26.5h-1.4c-0.6,0-1-0.4-1-1s0.4-1,1-1h1.4c2.5,0,4.6-2.1,4.6-4.6c0-2.2-1.5-4-3.6-4.5
	c-0.5-0.1-0.8-0.6-0.8-1.1c0.1-0.5,0.1-0.9,0.1-1.4c0-4.1-3.3-7.4-7.4-7.4c-3.7,0-6.8,2.7-7.3,6.3c-0.1,0.5-0.6,0.9-1.1,0.8
	c0,0,0,0-0.1,0c-0.4-0.1-0.9-0.1-1.3-0.1c-3.3,0-6,2.7-6,6s2.7,6,6,6c0.6,0,1,0.4,1,1s-0.4,1-1,1c-4.4-0.2-7.8-3.9-7.6-8.4
	s3.9-7.8,8.4-7.6c1.3-5,6.5-8,11.5-6.7c4.1,1.1,7,4.8,7,9.1v0.9c3.4,1.3,5.1,5.1,3.8,8.5C30.4,24.8,27.9,26.5,25.1,26.5L25.1,26.5z"
	/>
</svg>
