<?xml version="1.0" encoding="utf-8"?>
<!-- Generator: Adobe Illustrator 26.4.1, SVG Export Plug-In . SVG Version: 6.00 Build 0)  -->
<svg version="1.1" id="Layer_1" xmlns="http://www.w3.org/2000/svg" xmlns:xlink="http://www.w3.org/1999/xlink" x="0px" y="0px"
	 viewBox="0 0 126.1 15.6" style="enable-background:new 0 0 126.1 15.6;" xml:space="preserve">
<style type="text/css">
	.st0{fill:#C1C1C1;}
</style>
<g>
	<path class="st0" d="M9.8,0c2.8,0,5.6,0,8.4,0c0.8,0,1.4,0.6,1.4,1.3c0,0.7-0.6,1.2-1.2,1.3c0,0-0.1,0-0.1,0c-5.6,0-11.2,0-16.8,0
		c-0.7,0-1.2-0.4-1.3-1C-0.1,0.8,0.4,0,1.3,0c0.5,0,0.9,0,1.4,0C5,0,7.4,0,9.8,0z"/>
	<path class="st0" d="M9.8,6.5c2.8,0,5.6,0,8.4,0c0.8,0,1.4,0.6,1.4,1.3c0,0.7-0.6,1.2-1.2,1.3c-0.1,0-0.1,0-0.2,0
		c-5.6,0-11.1,0-16.7,0c-0.7,0-1.2-0.4-1.4-1c-0.2-0.8,0.4-1.6,1.2-1.6c0.5,0,1,0,1.4,0C5.1,6.5,7.4,6.5,9.8,6.5z"/>
	<path class="st0" d="M9.8,13c2.8,0,5.6,0,8.4,0c0.8,0,1.4,0.6,1.4,1.3c0,0.7-0.6,1.2-1.2,1.3c-0.1,0-0.1,0-0.2,0
		c-5.6,0-11.1,0-16.7,0c-0.7,0-1.2-0.4-1.4-1C-0.1,13.8,0.4,13,1.3,13c0.5,0,1,0,1.5,0C5.1,13,7.4,13,9.8,13z"/>
</g>
</svg>
